<?xml version="1.0" encoding="utf-8"?>
<!-- Generator: Adobe Illustrator 21.1.0, SVG Export Plug-In . SVG Version: 6.00 Build 0)  -->
<svg version="1.1" id="Layer_1" xmlns="http://www.w3.org/2000/svg" xmlns:xlink="http://www.w3.org/1999/xlink" x="0px" y="0px"
	 viewBox="0 0 229 104" style="enable-background:new 0 0 229 104;" xml:space="preserve">
<style type="text/css">
	.st0{fill:#FFFFFF;}
</style>
<g>
	<g>
		<path class="st0" d="M77.5,40.1c-1.6,5.1-2.4,9.9-2.4,14.5c0,10.1,4.5,15.2,13.6,15.2c4.9,0,9-1.6,12.1-4.7
			c3.1-3.2,4.7-7.2,4.7-12.3c1,1.1,1.5,2.2,1.5,3.4c0,2.6-1.6,5.9-4.8,9.9c-4.1,5.2-9.3,7.8-15.4,7.8c-5.1,0-9.1-1.5-12-4.5
			c-2.9-3-4.4-7.1-4.4-12.3c0-4.9,1.2-10.6,3.5-17.1l-7-0.6c-2.1,5.6-4.9,10.6-8.5,15.2c-4.9,6.3-10.4,11-16.3,14.4
			c-5.9,3.3-11.9,5-17.9,5c-6.8,0-12.6-2.2-17.2-6.5C2.3,63,0,57.7,0,51.4c0-5.6,1.9-10.3,5.7-13.9c3.8-3.6,8.6-5.5,14.5-5.5
			c4.9,0,10.1,1.7,15.5,5.1s10.3,8,14.6,13.8c0.5-1.8,0.8-3.5,0.8-5c0-5.5-2.7-8.8-8.2-9.6c0.4-0.9,0.7-1.6,0.9-2.1l0.6-1.6
			c0-0.1,0.1-0.3,0.2-0.6c6.4,1.2,12.8,2,19.2,2.5l0.6,0c1.5-4.6,2.2-7.9,2.2-10.1c0-1-0.4-1.4-1.2-1.4c-0.9,0-2.1,0.3-3.7,1
			l-0.5-1.3c0.8-0.3,1.3-0.5,1.5-0.6l4.1-1.7c1.5-0.6,3.3-1.4,5.3-2.2L72,18.9c-0.5,4.9-1.7,10.3-3.6,16.1l7.2,0.6
			c2.3-4.9,5-8.8,8.1-11.7c3.3-3.1,7.1-5.6,11.5-7.4c4.4-1.8,8.7-2.8,12.9-2.8c3.2,0,5.8,0.6,7.7,1.9c1.9,1.3,2.9,3,2.9,5.1
			c0,2.1-0.8,4.4-2.4,6.9c-1.6,2.5-3.8,4.7-6.5,6.6c-5.8,4.1-13.9,6.2-24.3,6.2C82.7,40.3,80.1,40.2,77.5,40.1z M63.1,38.8
			l-13.3-1.5c1.9,2,2.9,4.7,2.9,8c0,3.2-0.7,7.4-2.1,12.6C38.3,42.2,27.2,34.4,17.2,34.4c-4.1,0-7.6,1.4-10.4,4.1
			c-2.8,2.7-4.2,6.1-4.2,10c0,6.3,2.4,11.5,7.1,15.5c4.7,4.1,10.8,6.1,18.1,6.1c8.2,0,15.2-2.5,20.9-7.6
			C54.5,57.4,59.3,49.5,63.1,38.8z M79.1,35.8c2.4,0.2,5.5,0.4,9.2,0.4c9.9,0,17-1.3,21.3-4c3.9-2.4,5.9-5.4,5.9-8.8
			c0-2.2-1-3.9-2.9-5.3c-1.9-1.4-4.4-2-7.5-2c-5.9,0-11.1,1.8-15.7,5.3c-3.6,2.8-7,7.4-10,13.9L79.1,35.8z"/>
		<path class="st0" d="M136.5,44.8c-1.4-0.1-2.5-0.2-3.4-0.2c-6.9,0-12.1,2.6-15.7,7.9c-1.4,2.1-2.6,4.5-3.6,7.2
			c-1,2.7-1.5,5-1.5,6.8c0,1.3,0.4,2.3,1.1,3.1s1.7,1.2,2.8,1.2c2.7,0,5.7-2.2,9-6.5c3.3-4.3,4.9-8.3,4.9-12c0-0.8-0.2-1.5-0.6-2.1
			c-0.4-0.6-0.9-0.8-1.5-0.8c-2.1,0-4.1,2.1-6,6.3c-0.1-0.5-0.2-1-0.2-1.4c0-1.6,1-3.3,3-5.1c2-1.8,3.9-2.7,5.7-2.7
			c1.2,0,2.2,0.5,3,1.5c0.8,1,1.3,2.2,1.3,3.6c0,4.7-3,9.7-9,15c-5.2,4.6-9.4,6.9-12.9,6.9c-1.5,0-2.7-0.5-3.7-1.6
			c-1-1.1-1.5-2.4-1.5-4c0-3.6,1.2-7.3,3.7-11.2c2.5-3.9,5.8-7.2,9.8-10.1c2.2-1.5,4.7-2.8,7.3-3.8c2.6-1,4.9-1.5,6.7-1.5
			c1.1,0,1.7,0.5,1.7,1.5C137,43.3,136.8,43.9,136.5,44.8z"/>
		<path class="st0" d="M160.7,68l0.6,1.1c-3.1,2.2-6.8,3.8-11.1,4.7c0.5-4.3,3.1-10.8,7.6-19.6l2.5-4.8c0.9-1.7,1.3-2.7,1.3-3.2
			c0-0.7-0.3-1.1-0.9-1.1c-0.8,0-2.3,0.9-4.6,2.7c-2.3,1.8-4.4,3.9-6.6,6.3c-4.4,4.9-8.1,10.9-11.1,17.8c-1.2,0.3-3,0.9-5.2,1.9
			c2.4-4.9,4.8-10.4,7.2-16.5c2.4-6.1,3.7-9.7,3.7-10.8c0-0.9-0.4-1.4-1.1-1.4c-0.4,0-1.2,0.2-2.5,0.6c-0.1,0-0.2,0.1-0.4,0.1
			l-0.2-1.3c3.6-1,6.9-2.2,9.9-3.5l0.5-0.2c0.1,0.3,0.1,0.6,0.1,0.7c0,2.3-1.7,7.3-5.1,14.8l-0.5,1.2l0.7-0.7
			c4.3-4.9,8.2-8.7,11.8-11.5c3.6-2.8,6.4-4.2,8.5-4.2c1.3,0,1.9,0.7,1.9,2c0,1.4-1.7,5.4-5.1,12c-4.1,7.9-6.1,12.4-6.1,13.4
			c0,0.8,0.4,1.1,1.1,1.1c0.8,0,1.8-0.4,3.2-1.3L160.7,68z"/>
		<path class="st0" d="M187.3,56.3c0.4,0.7,0.5,1.4,0.5,2c0,2.5-1.7,5.4-5.2,8.6c-5.1,4.8-9.3,7.1-12.9,7.1c-3,0-4.6-1.7-4.6-5.2
			c0-3.9,1.2-8,3.6-12.3s5.4-7.8,9.2-10.6c4.5-3.4,8.6-5.1,12.1-5.1c2.1,0,3.1,0.8,3.1,2.3c0,1-0.5,2.2-1.5,3.6
			c-1,1.4-2.2,2.7-3.7,3.8c-1.4,1-3.1,2-5.3,2.8c-2.1,0.9-3.8,1.3-4.9,1.3c-1.2,0-2.1-0.7-2.5-2c1.1,0.2,2,0.2,2.6,0.2
			c2.6,0,5-0.7,7.2-2.2c2.2-1.5,3.3-3.1,3.3-4.9c0-1.3-0.8-1.9-2.4-1.9c-2.9,0-5.8,1.8-8.9,5.3c-2.1,2.5-3.9,5.4-5.3,8.8
			c-1.4,3.3-2.1,6.3-2.1,8.9c0,2.7,1.1,4,3.4,4c2.4,0,5-1.3,7.6-4C183.4,64,185.6,60.6,187.3,56.3z"/>
		<path class="st0" d="M212.1,41.2l-0.4,0.7l-1.9,3.2c-0.7,1.1-1.4,2.3-2.1,3.4l-0.4,0.6l-1-0.7c0.1-0.3,0.2-0.5,0.3-0.6
			c0.5-1.1,0.8-1.9,0.8-2.4c0-1-0.9-1.5-2.6-1.5c-1.6,0-3,0.6-4.2,1.8c-1.2,1.2-1.8,2.6-1.8,4.1c0,0.8,0.3,1.8,0.8,3l1.9,4
			c0.6,1.4,0.9,2.8,0.9,4.5c0,3.2-1.7,6.1-5.2,8.9c-3,2.4-5.7,3.6-8,3.6c-1.3,0-2.4-0.3-3.3-1s-1.3-1.5-1.3-2.6
			c0-1.2,0.3-2.4,0.9-3.6c1.6,2.8,3.6,4.1,6,4.1c1.9,0,3.6-0.7,5-2c1.5-1.3,2.2-2.8,2.2-4.5c0-0.9-0.3-2-0.8-3.1l-2.3-5
			c-0.4-1-0.7-2.1-0.7-3.3c0-2.2,1.2-4.6,3.6-7.3c1.6-1.8,3.2-3,4.8-3.7c1.6-0.7,3.6-1.1,6-1.1C210.4,41,211.3,41.1,212.1,41.2z"/>
		<path class="st0" d="M228.5,41.1l-0.5,1.2h-5.5l-0.3,0.7c-0.5,1-1.8,4.1-4,9.1c-0.9,2.1-2.1,4.9-3.8,8.5c-1.9,4.2-2.9,6.9-2.9,8
			c0,1.1,0.6,1.7,1.7,1.7c1.4,0,3.3-0.8,5.7-2.4l0.6,1c-1.6,1.2-3.3,2.2-5.4,3c-2,0.8-3.7,1.3-5,1.3c-2,0-2.9-0.8-2.9-2.3
			c0-1.1,1.1-4.2,3.3-9.2l4.1-9.3c2.3-5.2,3.6-8.3,3.9-9.2l0.4-0.9h-5.1l0.5-1.2h0.5c2.2,0,3.7-0.4,4.5-1.1c0.8-0.7,1.8-2.7,3.1-5.9
			c0.4,0,0.7,0,0.8,0c1.3,0,2.5-0.2,3.7-0.5c-0.3,0.8-0.8,2-1.5,3.7l-1.2,2.8l-0.4,0.9H228.5z"/>
	</g>
	<g>
		<path class="st0" d="M19.9,103.4h-9.4V84.1h2.1v17.5h7.3V103.4z"/>
		<path class="st0" d="M53.8,103.4H43.7V84.1h10v1.8h-7.9v6.2h7.6v1.8h-7.6v7.6h8V103.4z"/>
		<path class="st0" d="M79,96l-2.2,7.3h-2.1L81,84.1h2.6l6.3,19.3h-2.1L85.4,96H79z M84.8,94.2l-2.7-8.5l-2.6,8.5H84.8z"/>
		<path class="st0" d="M121.9,93.7c0,2.7-0.6,5-1.9,6.8c-1.4,1.9-3.2,2.9-5.4,2.9h-4.3V84.1h4.3c2.3,0,4.1,0.9,5.4,2.7
			C121.3,88.5,121.9,90.8,121.9,93.7z M119.7,93.7c0-2.5-0.4-4.3-1.2-5.7c-0.9-1.4-2.2-2.2-3.9-2.2h-2.2v15.7h2.2
			c1.7,0,3-0.7,3.9-2.1C119.3,98.1,119.7,96.2,119.7,93.7z"/>
		<path class="st0" d="M153.5,103.4h-8.6v-1.8h3.3V85.9h-3.3v-1.8h8.6v1.8h-3.2v15.6h3.2V103.4z"/>
		<path class="st0" d="M187.1,84.1h1.8v19.3h-2.3l-7.6-16.1v16.1h-1.8V84.1h2.3l7.6,15.9V84.1z"/>
		<path class="st0" d="M222.9,101.9l-0.9,0.6c-1.3,0.8-2.7,1.2-4.3,1.2c-2.5,0-4.3-1-5.4-2.9c-1-1.6-1.4-4-1.4-7.1
			c0-3.1,0.5-5.5,1.6-7.2c1.2-1.9,2.9-2.8,5.3-2.8c1,0,1.9,0.1,2.7,0.4c0.7,0.2,1.4,0.6,2.1,1.2l-1,1.7c-0.5-0.4-1-0.7-1.7-1
			c-0.7-0.3-1.5-0.5-2.2-0.5c-1.7,0-2.9,0.8-3.6,2.3c-0.6,1.3-1,3.3-1,5.9c0,2.5,0.4,4.5,1.1,5.9c0.8,1.5,2,2.3,3.5,2.3
			c1.3,0,2.3-0.3,3.1-0.9v-5h-2.9v-1.8h4.9V101.9z"/>
	</g>
	<g>
		<path class="st0" d="M172.2,31.1c-3.4,0-7-0.6-10.3-2.7c-2.8-1.7-3.5-3.8-2.4-6.6c0.2-0.6,0.9-1.2,1.5-1.6c3.1-1.7,6.4-3,9.9-2.9
			c4.4,0.1,9,0.1,12.9,2.8c3.5,2.4,3.5,5.8,0,8.2C180.4,30.5,176.6,31.1,172.2,31.1z"/>
		<path class="st0" d="M127.5,24.1c7.7-0.5,15.4-1.1,23.2-1.7c0,1.2,0,2.3,0,3.7c-7.7-0.5-15.4-1.1-23.2-1.6
			C127.5,24.3,127.5,24.2,127.5,24.1z"/>
		<path class="st0" d="M159.8,33.5c-6.3,2.3-12.1,4.5-18,6.7c-0.1-0.2-0.2-0.4-0.2-0.6c4-2.7,7.9-5.5,12-8.2
			c0.5-0.3,1.4-0.3,1.9-0.1C156.8,31.9,158.1,32.7,159.8,33.5z"/>
		<path class="st0" d="M176.5,12.8c-2.6,0-4.9,0-7.5,0c1.2-4.4,2.3-8.6,3.4-12.8c0.1,0,0.3,0,0.4,0C174,4.2,175.3,8.5,176.5,12.8z"
			/>
		<path class="st0" d="M185.9,33.6c0.4-0.3,0.6-0.5,0.7-0.6c3-2.4,5.7-1.9,8.6,0.6c2.3,2,5,3.6,7.4,5.7
			C196.8,38,191.5,35.6,185.9,33.6z"/>
		<path class="st0" d="M143.5,8.9c5.3,1.9,10.5,3.9,16.2,6c-1.9,1-3.3,1.8-4.8,2.5c-0.4,0.2-1.1,0.1-1.4-0.1
			c-3.3-2.3-6.6-4.6-9.9-6.9c-0.2-0.2-0.3-0.5-0.5-0.8C143.3,9.3,143.4,9.1,143.5,8.9z"/>
		<path class="st0" d="M172.2,47.6c-1.1-3.9-2.1-7.8-3.2-11.7c2.5,0,4.8,0,7.3,0c-1.2,4-2.3,7.8-3.4,11.6
			C172.8,47.6,172.5,47.6,172.2,47.6z"/>
		<path class="st0" d="M202,8.9c-5.3,1.9-10.5,3.9-16.2,6c1.9,1,3.3,1.8,4.8,2.5c0.4,0.2,1.1,0.1,1.4-0.1c3.3-2.3,6.6-4.6,9.9-6.9
			c0.2-0.2,0.3-0.5,0.5-0.8C202.2,9.3,202.1,9.1,202,8.9z"/>
		<path class="st0" d="M217.4,24.1c-7.7-0.5-15.4-1.1-23.2-1.7c0,1.2,0,2.3,0,3.7c7.7-0.5,15.4-1.1,23.2-1.6
			C217.4,24.3,217.4,24.2,217.4,24.1z"/>
	</g>
</g>
</svg>
